<svg aria-hidden="true" style="position:absolute;width:0;height:0;overflow:hidden" xmlns="http://www.w3.org/2000/svg">
  <defs>
    <symbol id="icon-facebook" viewBox="0 0 32 32">
      <path d="M19.52 4.64c0.24 0 0.48 0 0.96 0v3.6c-0.24 0-0.72 0-1.2 0s-0.96 0-1.2 0.24c-0.24 0.24-0.24 0.48-0.24 1.040 0 0.48 0 0.8 0 1.28h2.64v3.040h-2.64v13.2h-4.080v-13.28h-2.16v-3.040h2.16v-1.040c0-1.76 0.24-3.040 0.72-3.6 0.72-1.040 2.16-1.52 4.32-1.52 0.24 0.080 0.48 0.080 0.72 0.080z"></path>
    </symbol>
   <symbol id="icon-instagram" viewBox="0 0 32 32">
     <path d="M28.718 10.756c-0.016-1.074-0.215-2.14-0.596-3.145-0.667-1.716-2.024-3.073-3.743-3.737-0.994-0.373-2.044-0.573-3.108-0.596-1.368-0.061-1.801-0.078-5.273-0.078s-3.916 0-5.274 0.078c-1.062 0.023-2.113 0.223-3.106 0.596-1.719 0.664-3.078 2.021-3.743 3.737-0.374 0.992-0.576 2.041-0.596 3.101-0.061 1.367-0.080 1.8-0.080 5.265s0 3.909 0.080 5.265c0.021 1.062 0.222 2.109 0.596 3.104 0.667 1.714 2.024 3.071 3.744 3.735 0.989 0.386 2.040 0.605 3.106 0.639 1.369 0.061 1.803 0.080 5.274 0.080s3.916 0 5.274-0.080c1.062-0.021 2.112-0.221 3.108-0.595 1.719-0.666 3.076-2.022 3.743-3.737 0.374-0.994 0.574-2.041 0.596-3.104 0.061-1.365 0.080-1.798 0.080-5.265-0.003-3.466-0.003-3.906-0.082-5.264zM15.99 22.531c-3.631 0-6.572-2.936-6.572-6.561s2.941-6.561 6.572-6.561c3.628 0 6.572 2.936 6.572 6.561s-2.944 6.561-6.572 6.561zM22.824 10.696c-0.849 0-1.532-0.684-1.532-1.53s0.684-1.53 1.532-1.53c0.846 0 1.531 0.684 1.531 1.53s-0.685 1.53-1.531 1.53z"></path>
     <path d="M15.992 19.976c2.211 0 4.004-1.793 4.004-4.004s-1.793-4.004-4.004-4.004-4.004 1.793-4.004 4.004c0 2.211 1.793 4.004 4.004 4.004z"></path>
    </symbol>
    <symbol id="icon-youtube" viewBox="0 0 32 32">
      <path d="M24.24 6c-1.36-0.080-4.16-0.16-8.4-0.16h-0.56c-4.080 0-6.8 0.080-8.16 0.24-1.84 0.16-3.12 0.64-3.84 1.28-0.64 0.56-1.12 1.6-1.28 2.96-0.080 0.88-0.16 2.72-0.16 5.52v0.4c0 2.64 0.080 4.48 0.24 5.36 0.24 1.28 0.64 2.24 1.44 2.8 0.8 0.64 2.16 1.040 4.080 1.2 1.36 0.080 4.16 0.16 8.4 0.16h0.56c4.080 0 6.8-0.080 8.16-0.24 1.84-0.16 3.12-0.64 3.84-1.28 0.64-0.56 1.12-1.6 1.28-2.96 0.080-0.88 0.16-2.72 0.16-5.52v-0.4c0-2.64-0.080-4.48-0.24-5.36-0.24-1.28-0.64-2.24-1.44-2.8-0.8-0.64-2.16-1.040-4.080-1.2zM21.12 15.84l-8.8 5.28v-10.56l8.8 5.28z"></path>
    </symbol>
    <symbol id="icon-basket" viewBox="0 0 32 32">
      <path stroke-width="2" d="M5.114 31 1.18 7.4h29.64L26.886 31H5.114z"/>
      <path d="M6.534 7.466C6.534 2.238 10.772-2 16-2s9.466 4.238 9.466 9.466h-4a5.466 5.466 0 1 0-10.932 0h-4zM23.466 12.8zm-16.932 0V7.466A9.466 9.466 0 0 1 16-2v4a5.466 5.466 0 0 0-5.466 5.466V12.8h-4zM16-2a9.466 9.466 0 0 1 9.466 9.466V12.8h-4V7.466A5.466 5.466 0 0 0 16 2v-4z"/>
    </symbol>
    <symbol id="icon-shopping-cart" viewBox="0 0 32 32">
      <path stroke-linejoin="round" stroke-linecap="round" stroke-width="2.667" d="M12 29.333a1.333 1.333 0 0 0 0-2.666 1.333 1.333 0 0 0 0 2.666zm14.667 0a1.333 1.333 0 0 0 0-2.666 1.333 1.333 0 0 0 0 2.666z"/>
      <path stroke-linejoin="round" stroke-linecap="round" stroke-width="2.4" d="M1.333 1.333h5.333l3.573 17.853a2.671 2.671 0 0 0 2.616 2.147l.054-.001h-.003H25.917a2.668 2.668 0 0 0 2.613-2.13l.003-.017 2.133-11.187H7.999"/>
    </symbol>
    <symbol id="icon-vector" viewBox="0 0 32 32">
      <path d="M32 4.741 27.259 0v23.703L3.556 0-.001 3.557 23.702 27.26H-.001l4.741 4.741h27.259V4.742z"/>
    </symbol>
    <symbol id="icon-logo-veg" viewBox="0 0 32 32">
      <path d="M29.082.314H25.052a2.22 2.22 0 0 0-2.22 2.195v3.929a2.22 2.22 0 0 0 2.22 2.196h4.05a2.22 2.22 0 0 0 2.22-2.195V2.51a2.22 2.22 0 0 0-2.22-2.196h-.021.001zM6.73 23.04H2.412C1.08 23.04 0 24.024 0 25.236v3.928c0 1.214 1.08 2.196 2.412 2.196h4.32c1.33 0 2.41-.982 2.41-2.196v-3.928c0-1.214-1.08-2.196-2.412-2.196zm-.48-11.46H2.24c-1.238 0-2.24.986-2.24 2.2v3.928a2.22 2.22 0 0 0 2.22 2.196h4.05a2.22 2.22 0 0 0 2.22-2.195V13.78c0-1.214-1.004-2.196-2.24-2.196zm11.516 11.4h-4.01c-1.236 0-2.24.98-2.24 2.194v3.928a2.22 2.22 0 0 0 2.22 2.196h4.05a2.22 2.22 0 0 0 2.22-2.195v-3.929a2.22 2.22 0 0 0-2.22-2.196h-.021.001zM6.25.086H2.24C1.002.086 0 1.07 0 2.282V6.21a2.22 2.22 0 0 0 2.22 2.196h4.05a2.22 2.22 0 0 0 2.22-2.195V2.282C8.49 1.07 7.486.086 6.25.086zm11.826 11.612h-4.01c-1.236 0-2.24.982-2.24 2.194v3.93a2.22 2.22 0 0 0 2.22 2.196h4.03c1.238 0 2.24-.984 2.24-2.196v-3.93c0-1.212-1.002-2.194-2.24-2.194zM29.334 22.98h-4.01c-1.238 0-2.24.98-2.24 2.194v3.928a2.22 2.22 0 0 0 2.22 2.196h4.05a2.22 2.22 0 0 0 2.22-2.195v-3.929c0-1.214-1.004-2.196-2.24-2.196zM17.59.224h-4.008c-1.238 0-2.24.982-2.24 2.196v3.928a2.22 2.22 0 0 0 2.22 2.196H17.61a2.22 2.22 0 0 0 2.22-2.195V2.42c0-1.214-1.002-2.196-2.24-2.196zm11.454 11.702h-4.01c-1.236 0-2.24.982-2.24 2.196v3.928a2.22 2.22 0 0 0 2.22 2.196h4.05a2.22 2.22 0 0 0 2.22-2.195v-3.929c0-1.214-1.004-2.196-2.24-2.196z"/>
    </symbol>
    <symbol id="icon-sandwich-menu" viewBox="0 0 32 32">
      <path d="M0 6.392C0 5.512.714 4.8 1.592 4.8h12.816a1.592 1.592 0 0 1 0 3.184H1.592A1.592 1.592 0 0 1 0 6.392zM0 16c0-.88.714-1.592 1.592-1.592h28.816a1.592 1.592 0 0 1 0 3.184H1.592A1.592 1.592 0 0 1 0 16zm1.592 8.016a1.592 1.592 0 0 0 0 3.184h19.216a1.592 1.592 0 0 0 0-3.184H1.592z"/>
    </symbol>
    <symbol id="icon-x-close" viewBox="0 0 32 32">
      <path stroke-linejoin="round" stroke-linecap="round" stroke-width="3.429" d="M24 8 8 24M8 8l16 16"/>
    </symbol>
    <symbol id="icon-check-box" viewBox="0 0 32 32">
<path d="M20.061 10.162c0.235-0.331 0.616-0.545 1.048-0.545 0.707 0 1.28 0.573 1.28 1.28 0 0.261-0.078 0.504-0.213 0.707l0.003-0.005-6.942 10.24c-0.233 0.341-0.621 0.561-1.059 0.561s-0.826-0.221-1.056-0.557l-0.003-0.004-3.298-4.864c-0.145-0.205-0.232-0.46-0.232-0.735 0-0.707 0.573-1.28 1.28-1.28 0.446 0 0.838 0.228 1.067 0.573l0.003 0.005 2.238 3.301 5.883-8.677z"></path>
<path stroke-linejoin="miter" stroke-linecap="butt" stroke-miterlimit="4" stroke-width="2.4" d="M6.4 1.2h19.2c2.872 0 5.2 2.328 5.2 5.2v19.2c0 2.872-2.328 5.2-5.2 5.2h-19.2c-2.872 0-5.2-2.328-5.2-5.2v-19.2c0-2.872 2.328-5.2 5.2-5.2z"></path>
</symbol>
<symbol id="icon-pick" viewBox="0 0 32 32">
        <path d="M26.151 1.405c0.992-1.463 2.982-1.845 4.444-0.853s1.845 2.982 0.853 4.444l-17.356 25.6c-1.269 1.872-4.028 1.872-5.297 0l-8.244-12.16c-0.992-1.463-0.61-3.453 0.853-4.444s3.453-0.61 4.444 0.853l5.595 8.253 14.707-21.693z"></path>
    </symbol>
  </defs>
</svg>
