<svg aria-hidden="true" style="position:absolute;width:0;height:0;overflow:hidden" xmlns="http://www.w3.org/2000/svg">
  <defs>
    <symbol id="icon-facebook" viewBox="0 0 32 32">
      <path d="M18.24 8.771h.611v2.291h-.764c-.305 0-.611 0-.764.153s-.153.305-.153.662v.815h1.68v1.935h-1.68v8.4h-2.596v-8.451h-1.375v-1.935h1.375v-.662c0-1.12.153-1.935.458-2.291.458-.662 1.375-.967 2.749-.967.153.051.305.051.458.051z"/>
      <path stroke-width=".727" d="M7.273.364h17.455a6.909 6.909 0 0 1 6.909 6.909v17.455a6.909 6.909 0 0 1-6.909 6.909H7.273a6.909 6.909 0 0 1-6.909-6.909V7.273A6.909 6.909 0 0 1 7.273.364z"/>
    </symbol>
    <symbol id="icon-instagram" viewBox="0 0 32 32">
      <path d="M24.093 12.663a5.871 5.871 0 0 0-.393-2.042l.014.04a4.192 4.192 0 0 0-2.354-2.368l-.028-.01a5.895 5.895 0 0 0-1.971-.38h-.006c-.87-.039-1.146-.049-3.355-.049s-2.492 0-3.356.049a5.991 5.991 0 0 0-1.977.38 4.189 4.189 0 0 0-2.372 2.35l-.01.028a5.803 5.803 0 0 0-.379 1.967v.006c-.039.87-.051 1.145-.051 3.351s0 2.487.051 3.351a5.94 5.94 0 0 0 .392 2.016l-.014-.041a4.193 4.193 0 0 0 2.355 2.368l.028.01c.584.235 1.26.382 1.967.406h.01c.871.039 1.147.051 3.356.051s2.492 0 3.356-.051a5.946 5.946 0 0 0 2.018-.392l-.041.014a4.195 4.195 0 0 0 2.372-2.35l.01-.028a5.918 5.918 0 0 0 .379-1.975c.039-.869.051-1.145.051-3.351-.001-2.205-.001-2.485-.052-3.349zm-8.1 7.493h-.004a4.177 4.177 0 0 1-4.177-4.175 4.179 4.179 0 0 1 4.178-4.175h.004a4.179 4.179 0 0 1 4.182 4.175 4.179 4.179 0 0 1-4.179 4.175h-.003zm4.349-7.531a.973.973 0 1 1 0-1.946h.027a.974.974 0 1 1 0 1.948h-.028.001z"/>
      <path d="M15.995 18.53a2.548 2.548 0 0 0 0-5.096 2.548 2.548 0 0 0 0 5.096z"/>
      <path stroke-width=".727" d="M7.273.364h17.455a6.909 6.909 0 0 1 6.909 6.909v17.455a6.909 6.909 0 0 1-6.909 6.909H7.273a6.909 6.909 0 0 1-6.909-6.909V7.273A6.909 6.909 0 0 1 7.273.364z"/>
    </symbol>
    <symbol id="icon-youtube" viewBox="0 0 32 32">
      <path d="M21.244 9.636c-.865-.051-2.647-.102-5.345-.102h-.356c-2.596 0-4.327.051-5.193.153-1.171.102-1.985.407-2.444.815-.407.356-.713 1.018-.815 1.884-.051.56-.102 1.731-.102 3.513v.255c0 1.68.051 2.851.153 3.411.153.815.407 1.425.916 1.782.509.407 1.375.662 2.596.764.865.051 2.647.102 5.345.102h.356c2.596 0 4.327-.051 5.193-.153 1.171-.102 1.985-.407 2.444-.815.407-.356.713-1.018.815-1.884.051-.56.102-1.731.102-3.513v-.255c0-1.68-.051-2.851-.153-3.411-.153-.815-.407-1.425-.916-1.782-.509-.407-1.375-.662-2.596-.764zm-1.986 6.262-5.6 3.36v-6.72l5.6 3.36z"/>
      <path stroke-width=".727" d="M7.273.364h17.455a6.909 6.909 0 0 1 6.909 6.909v17.455a6.909 6.909 0 0 1-6.909 6.909H7.273a6.909 6.909 0 0 1-6.909-6.909V7.273A6.909 6.909 0 0 1 7.273.364z"/>
    </symbol>
    <symbol id="icon-basket" viewBox="0 0 32 32">
      <path stroke-width="2" d="M5.114 31 1.18 7.4h29.64L26.886 31H5.114z"/>
      <path d="M6.534 7.466C6.534 2.238 10.772-2 16-2s9.466 4.238 9.466 9.466h-4a5.466 5.466 0 1 0-10.932 0h-4zM23.466 12.8zm-16.932 0V7.466A9.466 9.466 0 0 1 16-2v4a5.466 5.466 0 0 0-5.466 5.466V12.8h-4zM16-2a9.466 9.466 0 0 1 9.466 9.466V12.8h-4V7.466A5.466 5.466 0 0 0 16 2v-4z"/>
    </symbol>
    <symbol id="icon-shopping-cart" viewBox="0 0 32 32">
      <path stroke-linejoin="round" stroke-linecap="round" stroke-width="2.667" d="M12 29.333a1.333 1.333 0 0 0 0-2.666 1.333 1.333 0 0 0 0 2.666zm14.667 0a1.333 1.333 0 0 0 0-2.666 1.333 1.333 0 0 0 0 2.666z"/>
      <path stroke-linejoin="round" stroke-linecap="round" stroke-width="2.4" d="M1.333 1.333h5.333l3.573 17.853a2.671 2.671 0 0 0 2.616 2.147l.054-.001h-.003H25.917a2.668 2.668 0 0 0 2.613-2.13l.003-.017 2.133-11.187H7.999"/>
    </symbol>
    <symbol id="icon-vector" viewBox="0 0 32 32">
      <path d="M32 4.741 27.259 0v23.703L3.556 0-.001 3.557 23.702 27.26H-.001l4.741 4.741h27.259V4.742z"/>
    </symbol>
    <symbol id="icon-logo-veg" viewBox="0 0 32 32">
      <path d="M29.082.314H25.052a2.22 2.22 0 0 0-2.22 2.195v3.929a2.22 2.22 0 0 0 2.22 2.196h4.05a2.22 2.22 0 0 0 2.22-2.195V2.51a2.22 2.22 0 0 0-2.22-2.196h-.021.001zM6.73 23.04H2.412C1.08 23.04 0 24.024 0 25.236v3.928c0 1.214 1.08 2.196 2.412 2.196h4.32c1.33 0 2.41-.982 2.41-2.196v-3.928c0-1.214-1.08-2.196-2.412-2.196zm-.48-11.46H2.24c-1.238 0-2.24.986-2.24 2.2v3.928a2.22 2.22 0 0 0 2.22 2.196h4.05a2.22 2.22 0 0 0 2.22-2.195V13.78c0-1.214-1.004-2.196-2.24-2.196zm11.516 11.4h-4.01c-1.236 0-2.24.98-2.24 2.194v3.928a2.22 2.22 0 0 0 2.22 2.196h4.05a2.22 2.22 0 0 0 2.22-2.195v-3.929a2.22 2.22 0 0 0-2.22-2.196h-.021.001zM6.25.086H2.24C1.002.086 0 1.07 0 2.282V6.21a2.22 2.22 0 0 0 2.22 2.196h4.05a2.22 2.22 0 0 0 2.22-2.195V2.282C8.49 1.07 7.486.086 6.25.086zm11.826 11.612h-4.01c-1.236 0-2.24.982-2.24 2.194v3.93a2.22 2.22 0 0 0 2.22 2.196h4.03c1.238 0 2.24-.984 2.24-2.196v-3.93c0-1.212-1.002-2.194-2.24-2.194zM29.334 22.98h-4.01c-1.238 0-2.24.98-2.24 2.194v3.928a2.22 2.22 0 0 0 2.22 2.196h4.05a2.22 2.22 0 0 0 2.22-2.195v-3.929c0-1.214-1.004-2.196-2.24-2.196zM17.59.224h-4.008c-1.238 0-2.24.982-2.24 2.196v3.928a2.22 2.22 0 0 0 2.22 2.196H17.61a2.22 2.22 0 0 0 2.22-2.195V2.42c0-1.214-1.002-2.196-2.24-2.196zm11.454 11.702h-4.01c-1.236 0-2.24.982-2.24 2.196v3.928a2.22 2.22 0 0 0 2.22 2.196h4.05a2.22 2.22 0 0 0 2.22-2.195v-3.929c0-1.214-1.004-2.196-2.24-2.196z"/>
    </symbol>
    <symbol id="icon-sandwich-menu" viewBox="0 0 32 32">
      <path d="M0 6.392C0 5.512.714 4.8 1.592 4.8h12.816a1.592 1.592 0 0 1 0 3.184H1.592A1.592 1.592 0 0 1 0 6.392zM0 16c0-.88.714-1.592 1.592-1.592h28.816a1.592 1.592 0 0 1 0 3.184H1.592A1.592 1.592 0 0 1 0 16zm1.592 8.016a1.592 1.592 0 0 0 0 3.184h19.216a1.592 1.592 0 0 0 0-3.184H1.592z"/>
    </symbol>
    <symbol id="icon-x-close" viewBox="0 0 32 32">
      <path stroke-linejoin="round" stroke-linecap="round" stroke-width="3.429" d="M24 8 8 24M8 8l16 16"/>
    </symbol>
  </defs>
</svg>
